<svg width="450" height="261" viewBox="0 0 450 261" fill="none" xmlns="http://www.w3.org/2000/svg">
<rect width="450" height="261" fill="white"/>
<rect x="300" width="146" height="32" fill="#0E193E"/>
<rect width="146" height="32" fill="#0E193E"/>
<rect y="221" width="50" height="32" fill="#0E193E"/>
<g filter="url(#filter0_d_0_1)">
<rect x="397" y="221" width="49" height="32" fill="#0E193E"/>
</g>
<path d="M162.688 29V2.81818H181.557V8.54545H169.795V13.0455H180.585V18.7727H169.795V23.2727H181.506V29H162.688ZM185.082 29V2.81818H196.383C198.326 2.81818 200.027 3.17187 201.484 3.87926C202.941 4.58665 204.075 5.60511 204.885 6.93466C205.694 8.2642 206.099 9.85795 206.099 11.7159C206.099 13.5909 205.681 15.1719 204.846 16.4588C204.02 17.7457 202.856 18.7173 201.356 19.3736C199.865 20.0298 198.122 20.358 196.127 20.358H189.377V14.8352H194.696C195.531 14.8352 196.243 14.733 196.831 14.5284C197.427 14.3153 197.883 13.9787 198.199 13.5185C198.522 13.0582 198.684 12.4574 198.684 11.7159C198.684 10.9659 198.522 10.3565 198.199 9.88778C197.883 9.41051 197.427 9.06108 196.831 8.83949C196.243 8.60937 195.531 8.49432 194.696 8.49432H192.19V29H185.082ZM200.423 16.983L206.968 29H199.247L192.855 16.983H200.423ZM209.129 29V2.81818H220.43C222.373 2.81818 224.074 3.17187 225.531 3.87926C226.988 4.58665 228.122 5.60511 228.931 6.93466C229.741 8.2642 230.146 9.85795 230.146 11.7159C230.146 13.5909 229.728 15.1719 228.893 16.4588C228.066 17.7457 226.903 18.7173 225.403 19.3736C223.912 20.0298 222.169 20.358 220.174 20.358H213.424V14.8352H218.743C219.578 14.8352 220.289 14.733 220.877 14.5284C221.474 14.3153 221.93 13.9787 222.245 13.5185C222.569 13.0582 222.731 12.4574 222.731 11.7159C222.731 10.9659 222.569 10.3565 222.245 9.88778C221.93 9.41051 221.474 9.06108 220.877 8.83949C220.289 8.60937 219.578 8.49432 218.743 8.49432H216.237V29H209.129ZM224.47 16.983L231.015 29H223.294L216.902 16.983H224.47ZM258.539 15.9091C258.539 18.8239 257.973 21.2827 256.839 23.2855C255.706 25.2798 254.176 26.7926 252.25 27.8239C250.324 28.8466 248.176 29.358 245.806 29.358C243.42 29.358 241.264 28.8423 239.338 27.8111C237.42 26.7713 235.895 25.2543 234.761 23.2599C233.636 21.2571 233.074 18.8068 233.074 15.9091C233.074 12.9943 233.636 10.5398 234.761 8.54545C235.895 6.54261 237.42 5.02983 239.338 4.0071C241.264 2.97585 243.42 2.46023 245.806 2.46023C248.176 2.46023 250.324 2.97585 252.25 4.0071C254.176 5.02983 255.706 6.54261 256.839 8.54545C257.973 10.5398 258.539 12.9943 258.539 15.9091ZM251.227 15.9091C251.227 14.3409 251.018 13.0199 250.6 11.946C250.191 10.8636 249.582 10.0455 248.772 9.49148C247.971 8.92898 246.983 8.64773 245.806 8.64773C244.63 8.64773 243.637 8.92898 242.828 9.49148C242.027 10.0455 241.417 10.8636 241 11.946C240.591 13.0199 240.386 14.3409 240.386 15.9091C240.386 17.4773 240.591 18.8026 241 19.8849C241.417 20.9588 242.027 21.777 242.828 22.3395C243.637 22.8935 244.63 23.1705 245.806 23.1705C246.983 23.1705 247.971 22.8935 248.772 22.3395C249.582 21.777 250.191 20.9588 250.6 19.8849C251.018 18.8026 251.227 17.4773 251.227 15.9091ZM261.828 29V2.81818H273.129C275.072 2.81818 276.773 3.17187 278.23 3.87926C279.688 4.58665 280.821 5.60511 281.631 6.93466C282.44 8.2642 282.845 9.85795 282.845 11.7159C282.845 13.5909 282.428 15.1719 281.592 16.4588C280.766 17.7457 279.602 18.7173 278.102 19.3736C276.611 20.0298 274.868 20.358 272.874 20.358H266.124V14.8352H271.442C272.277 14.8352 272.989 14.733 273.577 14.5284C274.173 14.3153 274.629 13.9787 274.945 13.5185C275.268 13.0582 275.43 12.4574 275.43 11.7159C275.43 10.9659 275.268 10.3565 274.945 9.88778C274.629 9.41051 274.173 9.06108 273.577 8.83949C272.989 8.60937 272.277 8.49432 271.442 8.49432H268.936V29H261.828ZM277.169 16.983L283.714 29H275.993L269.601 16.983H277.169Z" fill="#0E193E"/>
<path d="M17.179 163.955V140.943L61.071 71.9091H81.9517V102.591H70.0199L46.3693 140.091V140.943H111.142V163.955H17.179ZM70.233 181V156.923L70.8722 146.909V71.9091H98.571V181H70.233Z" fill="#0E193E"/>
<path d="M326.179 160.955V137.943L370.071 68.9091H390.952V99.5909H379.02L355.369 137.091V137.943H420.142V160.955H326.179ZM379.233 178V153.923L379.872 143.909V68.9091H407.571V178H379.233Z" fill="#0E193E"/>
<path d="M222.759 180.983C212.851 180.947 204.293 178.657 197.084 174.112C189.875 169.566 184.317 163.014 180.411 154.456C176.505 145.898 174.57 135.635 174.605 123.668C174.641 111.665 176.594 101.473 180.464 93.0923C184.371 84.7116 189.911 78.3374 197.084 73.9695C204.293 69.6016 212.851 67.4176 222.759 67.4176C232.666 67.4176 241.224 69.6193 248.433 74.0227C255.642 78.3906 261.2 84.7649 265.106 93.1456C269.012 101.526 270.947 111.7 270.912 123.668C270.912 135.706 268.959 146.004 265.053 154.562C261.146 163.121 255.589 169.673 248.38 174.218C241.207 178.728 232.666 180.983 222.759 180.983ZM222.759 156.906C227.872 156.906 232.063 154.243 235.33 148.916C238.632 143.554 240.266 135.138 240.23 123.668C240.23 116.175 239.484 110.049 237.993 105.29C236.501 100.532 234.442 97.0163 231.814 94.7436C229.186 92.4354 226.168 91.2812 222.759 91.2812C217.645 91.2812 213.472 93.8736 210.241 99.0582C207.009 104.243 205.358 112.446 205.287 123.668C205.251 131.303 205.979 137.588 207.471 142.524C208.962 147.425 211.022 151.047 213.65 153.391C216.313 155.734 219.349 156.906 222.759 156.906Z" fill="#0E193E"/>
<path d="M65.6875 250V223.818H76.9886C78.9318 223.818 80.6321 224.202 82.0895 224.969C83.5469 225.736 84.6804 226.814 85.4901 228.203C86.2997 229.592 86.7045 231.216 86.7045 233.074C86.7045 234.949 86.2869 236.572 85.4517 237.945C84.625 239.317 83.4616 240.374 81.9616 241.115C80.4702 241.857 78.7273 242.227 76.733 242.227H69.983V236.705H75.3011C76.1364 236.705 76.848 236.56 77.4361 236.27C78.0327 235.972 78.4886 235.55 78.804 235.004C79.1278 234.459 79.2898 233.815 79.2898 233.074C79.2898 232.324 79.1278 231.685 78.804 231.156C78.4886 230.619 78.0327 230.21 77.4361 229.929C76.848 229.639 76.1364 229.494 75.3011 229.494H72.7955V250H65.6875ZM92.8441 250H85.1737L93.8157 223.818H103.532L112.174 250H104.503L98.7759 231.028H98.5714L92.8441 250ZM91.4123 239.67H105.833V244.989H91.4123V239.67ZM130.468 232.46C130.357 232.009 130.182 231.612 129.944 231.271C129.705 230.922 129.407 230.628 129.049 230.389C128.699 230.142 128.29 229.959 127.821 229.839C127.361 229.712 126.854 229.648 126.3 229.648C125.107 229.648 124.088 229.933 123.245 230.504C122.409 231.075 121.77 231.898 121.327 232.972C120.892 234.045 120.675 235.341 120.675 236.858C120.675 238.392 120.884 239.705 121.301 240.795C121.719 241.886 122.341 242.722 123.168 243.301C123.995 243.881 125.022 244.17 126.249 244.17C127.331 244.17 128.23 244.013 128.946 243.697C129.671 243.382 130.212 242.935 130.57 242.355C130.928 241.776 131.107 241.094 131.107 240.31L132.334 240.438H126.351V235.375H137.959V239.006C137.959 241.392 137.452 243.433 136.438 245.129C135.432 246.817 134.043 248.112 132.27 249.016C130.506 249.911 128.482 250.358 126.198 250.358C123.65 250.358 121.412 249.817 119.486 248.734C117.56 247.652 116.056 246.109 114.973 244.107C113.9 242.104 113.363 239.722 113.363 236.96C113.363 234.795 113.691 232.878 114.347 231.207C115.012 229.537 115.932 228.126 117.108 226.976C118.284 225.817 119.644 224.943 121.186 224.355C122.729 223.759 124.382 223.46 126.147 223.46C127.698 223.46 129.138 223.682 130.468 224.125C131.806 224.56 132.986 225.182 134.009 225.991C135.04 226.793 135.871 227.743 136.502 228.842C137.132 229.942 137.516 231.148 137.652 232.46H130.468ZM141.273 250V223.818H160.143V229.545H148.381V234.045H159.171V239.773H148.381V244.273H160.092V250H141.273ZM193.493 223.818V250H187.561L178.101 236.244H177.948V250H170.84V223.818H176.874L186.181 237.523H186.385V223.818H193.493ZM222.219 236.909C222.219 239.824 221.652 242.283 220.519 244.286C219.385 246.28 217.855 247.793 215.929 248.824C214.003 249.847 211.855 250.358 209.486 250.358C207.1 250.358 204.944 249.842 203.017 248.811C201.1 247.771 199.574 246.254 198.441 244.26C197.316 242.257 196.753 239.807 196.753 236.909C196.753 233.994 197.316 231.54 198.441 229.545C199.574 227.543 201.1 226.03 203.017 225.007C204.944 223.976 207.1 223.46 209.486 223.46C211.855 223.46 214.003 223.976 215.929 225.007C217.855 226.03 219.385 227.543 220.519 229.545C221.652 231.54 222.219 233.994 222.219 236.909ZM214.907 236.909C214.907 235.341 214.698 234.02 214.28 232.946C213.871 231.864 213.262 231.045 212.452 230.491C211.651 229.929 210.662 229.648 209.486 229.648C208.31 229.648 207.317 229.929 206.507 230.491C205.706 231.045 205.097 231.864 204.679 232.946C204.27 234.02 204.066 235.341 204.066 236.909C204.066 238.477 204.27 239.803 204.679 240.885C205.097 241.959 205.706 242.777 206.507 243.339C207.317 243.893 208.31 244.17 209.486 244.17C210.662 244.17 211.651 243.893 212.452 243.339C213.262 242.777 213.871 241.959 214.28 240.885C214.698 239.803 214.907 238.477 214.907 236.909ZM223.561 229.545V223.818H246.317V229.545H238.442V250H231.436V229.545H223.561ZM256.164 250V223.818H274.573V229.545H263.272V234.045H273.448V239.773H263.272V250H256.164ZM302.551 236.909C302.551 239.824 301.984 242.283 300.851 244.286C299.717 246.28 298.188 247.793 296.261 248.824C294.335 249.847 292.188 250.358 289.818 250.358C287.432 250.358 285.276 249.842 283.349 248.811C281.432 247.771 279.906 246.254 278.773 244.26C277.648 242.257 277.085 239.807 277.085 236.909C277.085 233.994 277.648 231.54 278.773 229.545C279.906 227.543 281.432 226.03 283.349 225.007C285.276 223.976 287.432 223.46 289.818 223.46C292.188 223.46 294.335 223.976 296.261 225.007C298.188 226.03 299.717 227.543 300.851 229.545C301.984 231.54 302.551 233.994 302.551 236.909ZM295.239 236.909C295.239 235.341 295.03 234.02 294.612 232.946C294.203 231.864 293.594 231.045 292.784 230.491C291.983 229.929 290.994 229.648 289.818 229.648C288.642 229.648 287.649 229.929 286.839 230.491C286.038 231.045 285.429 231.864 285.011 232.946C284.602 234.02 284.398 235.341 284.398 236.909C284.398 238.477 284.602 239.803 285.011 240.885C285.429 241.959 286.038 242.777 286.839 243.339C287.649 243.893 288.642 244.17 289.818 244.17C290.994 244.17 291.983 243.893 292.784 243.339C293.594 242.777 294.203 241.959 294.612 240.885C295.03 239.803 295.239 238.477 295.239 236.909ZM321.334 223.818H328.442V240.591C328.442 242.585 327.965 244.311 327.01 245.768C326.064 247.217 324.743 248.338 323.047 249.131C321.351 249.915 319.382 250.307 317.141 250.307C314.882 250.307 312.905 249.915 311.209 249.131C309.513 248.338 308.192 247.217 307.246 245.768C306.309 244.311 305.84 242.585 305.84 240.591V223.818H312.948V239.977C312.948 240.787 313.127 241.511 313.485 242.151C313.843 242.781 314.337 243.276 314.968 243.634C315.607 243.991 316.331 244.17 317.141 244.17C317.959 244.17 318.684 243.991 319.314 243.634C319.945 243.276 320.439 242.781 320.797 242.151C321.155 241.511 321.334 240.787 321.334 239.977V223.818ZM354.474 223.818V250H348.542L339.082 236.244H338.928V250H331.82V223.818H337.854L347.161 237.523H347.366V223.818H354.474ZM367.91 250H357.836V223.818H367.808C370.501 223.818 372.827 224.342 374.788 225.391C376.756 226.43 378.273 227.93 379.339 229.891C380.413 231.842 380.95 234.182 380.95 236.909C380.95 239.636 380.417 241.98 379.352 243.94C378.286 245.892 376.778 247.392 374.826 248.44C372.874 249.48 370.569 250 367.91 250ZM364.944 243.966H367.654C368.95 243.966 370.053 243.757 370.965 243.339C371.886 242.922 372.585 242.202 373.062 241.179C373.548 240.156 373.79 238.733 373.79 236.909C373.79 235.085 373.543 233.662 373.049 232.639C372.563 231.616 371.847 230.896 370.901 230.479C369.964 230.061 368.813 229.852 367.45 229.852H364.944V243.966Z" fill="#0E193E"/>
<defs>
<filter id="filter0_d_0_1" x="393" y="221" width="57" height="40" filterUnits="userSpaceOnUse" color-interpolation-filters="sRGB">
<feFlood flood-opacity="0" result="BackgroundImageFix"/>
<feColorMatrix in="SourceAlpha" type="matrix" values="0 0 0 0 0 0 0 0 0 0 0 0 0 0 0 0 0 0 127 0" result="hardAlpha"/>
<feOffset dy="4"/>
<feGaussianBlur stdDeviation="2"/>
<feComposite in2="hardAlpha" operator="out"/>
<feColorMatrix type="matrix" values="0 0 0 0 0 0 0 0 0 0 0 0 0 0 0 0 0 0 0.25 0"/>
<feBlend mode="normal" in2="BackgroundImageFix" result="effect1_dropShadow_0_1"/>
<feBlend mode="normal" in="SourceGraphic" in2="effect1_dropShadow_0_1" result="shape"/>
</filter>
</defs>
</svg>
